<?xml version="1.0" encoding="utf-8"?>
<svg viewBox="91.581 23.342 171.419 20.968" fill="none" xmlns="http://www.w3.org/2000/svg">
  <defs>
    <clipPath id="clip0_6_14">
      <rect width="263" height="70" fill="white"/>
    </clipPath>
  </defs>
  <g clip-path="url(#clip0_6_14)">
    <path d="M91.994 33.9653C91.994 28.6898 96.0742 24.8788 101.247 24.8788C106.419 24.8788 110.527 28.6898 110.527 33.9653C110.527 39.2407 106.419 43.0517 101.247 43.0517C96.0742 43.0517 91.994 39.2407 91.994 33.9653ZM108.343 33.9653C108.343 29.4362 104.851 26.8239 101.247 26.8239C97.6417 26.8239 94.1784 29.4362 94.1784 33.9653C94.1784 38.4944 97.6474 41.1066 101.247 41.1066C104.846 41.1066 108.343 38.4944 108.343 33.9653Z" style="fill: rgb(255, 255, 255);"/>
    <path d="M125.315 35.9612C125.315 35.4015 125.716 35.0565 126.197 35.0565H133.639C134.12 35.0565 134.516 35.4015 134.516 35.9612C134.516 36.521 134.114 36.8659 133.639 36.8659H126.197C125.716 36.8659 125.315 36.521 125.315 35.9612Z" style="fill: rgb(255, 255, 255);"/>
    <path d="M152.897 37.5388C152.897 40.3659 154.34 41.1915 155.806 41.1915C157.594 41.1915 159.088 40.2076 160.339 38.3417C160.469 38.1551 160.684 37.9402 161.029 37.9402C161.482 37.9402 161.906 38.2852 161.906 38.7658C161.906 39.0033 161.827 39.2181 161.669 39.4613C160.31 41.5646 158.364 43.0574 155.693 43.0574C152.84 43.0574 150.916 40.954 150.916 37.8894V31.9184H148.647C148.194 31.9184 147.792 31.5961 147.792 31.0138C147.792 30.4314 148.194 30.1091 148.647 30.1091H150.916V26.4847C150.916 25.9532 151.29 25.58 151.878 25.58C152.467 25.58 152.891 25.9532 152.891 26.4847V30.1091H159.133C159.614 30.1091 160.01 30.454 160.01 31.0138C160.01 31.5735 159.609 31.9184 159.133 31.9184H152.891V37.5444L152.897 37.5388Z" style="fill: rgb(255, 255, 255);"/>
    <path d="M184.859 29.7811C185.527 29.7811 186.116 30.126 186.116 30.8498C186.116 31.353 185.793 31.9128 184.916 31.9128H184.758C182.517 31.9128 180.01 33.7504 179.104 36.7076V41.9604C179.104 42.5202 178.68 42.8934 178.119 42.8934C177.559 42.8934 177.135 42.5202 177.135 41.9604V37.5388C177.135 34.5816 176.92 33.1172 176.28 31.223C175.986 30.3692 176.625 29.9451 177.265 29.9451C177.61 29.9451 177.904 30.2109 178.119 30.6915C178.414 31.3304 178.651 32.4499 178.787 34.1575H178.844C180.389 31.3304 182.709 29.7868 184.871 29.7868L184.859 29.7811Z" style="fill: rgb(255, 255, 255);"/>
    <path d="M200.841 25.3029C200.841 24.4491 201.537 23.7819 202.363 23.7819C203.189 23.7819 203.908 24.4491 203.908 25.3029C203.908 26.1567 203.217 26.8239 202.363 26.8239C201.508 26.8239 200.841 26.1284 200.841 25.3029ZM202.363 42.8934C201.78 42.8934 201.401 42.5202 201.401 41.9604V30.8724C201.401 30.3126 201.774 29.9394 202.363 29.9394C202.952 29.9394 203.376 30.3126 203.376 30.8724V41.9604C203.376 42.5202 202.952 42.8934 202.363 42.8934Z" style="fill: rgb(255, 255, 255);"/>
    <path d="M222.662 41.9604C222.662 42.5202 222.238 42.8934 221.649 42.8934C221.061 42.8934 220.687 42.5202 220.687 41.9604V25.4612C220.687 24.9015 221.061 24.5283 221.649 24.5283C222.238 24.5283 222.662 24.9015 222.662 25.4612C222.662 27.8869 222.634 30.4483 222.555 33.4055H222.611C223.918 31.3247 225.973 29.7811 228.695 29.7811C231.841 29.7811 234.801 32.3142 234.801 36.3627C234.801 40.4112 231.813 43.0517 228.717 43.0517C226.024 43.0517 223.941 41.3441 222.713 39.4782H222.662V41.9548V41.9604ZM228.395 41.2141C230.93 41.2141 232.798 39.2181 232.798 36.4192C232.798 33.6204 230.879 31.647 228.395 31.647C226.125 31.647 223.726 33.3772 222.526 36.4192C223.675 39.4047 226.284 41.2141 228.395 41.2141Z" style="fill: rgb(255, 255, 255);"/>
    <path d="M260.629 36.5776H251.586C251.608 39.5347 254.064 41.2141 256.837 41.2141C258.654 41.2141 260.142 40.6034 261.37 39.5856C261.636 39.3482 261.823 39.2124 262.117 39.2124C262.598 39.2124 262.994 39.5856 262.994 40.0889C262.994 40.3829 262.864 40.6204 262.57 40.8861C261.291 42.0848 259.05 43.046 256.832 43.046C252.565 43.046 249.605 40.462 249.605 36.2496C249.605 32.546 252.621 29.7755 256.22 29.7755C259.474 29.7755 262.061 31.9354 262.061 35C262.061 35.8538 261.659 36.5719 260.623 36.5719L260.629 36.5776ZM260.148 34.7116C260.148 33.0606 258.575 31.5113 256.226 31.5113C253.878 31.5113 252.197 32.8683 251.716 34.9774H259.876C260.091 34.9774 260.142 34.87 260.142 34.7116H260.148Z" style="fill: rgb(255, 255, 255);"/>
  </g>
</svg>